<svg width="1197" height="595" viewBox="0 0 1197 595" fill="none" xmlns="http://www.w3.org/2000/svg">
<rect x="1.5" y="1.5" width="1194" height="592" stroke="#D4AF37" stroke-width="3"/>
<rect x="15.5" y="15.5" width="1166" height="564" stroke="#D4AF37" stroke-width="3"/>
<rect x="29.5" y="29.5" width="1138" height="536" stroke="#D4AF37" stroke-width="3"/>
<rect x="1132.5" y="15.5" width="49" height="49" fill="#040F35" stroke="#D4AF37" stroke-width="3"/>
<rect x="1146.5" y="1.5" width="49" height="49" fill="#040F35" stroke="#D4AF37" stroke-width="3"/>
<rect x="1152" y="7" width="38" height="38" stroke="#D4AF37" stroke-width="2"/>
<rect x="1171" y="8.32237" width="25" height="25" transform="rotate(45 1171 8.32237)" stroke="#D4AF37" stroke-width="3"/>
<rect x="1170" y="10" width="2" height="32" fill="#D4AF37"/>
<rect x="1155" y="27" width="2" height="32" transform="rotate(-90 1155 27)" fill="#D4AF37"/>
<rect x="15.5" y="64.5" width="49" height="49" transform="rotate(-90 15.5 64.5)" fill="#040F35" stroke="#D4AF37" stroke-width="3"/>
<rect x="1.5" y="50.5" width="49" height="49" transform="rotate(-90 1.5 50.5)" fill="#040F35" stroke="#D4AF37" stroke-width="3"/>
<rect x="7" y="45" width="38" height="38" transform="rotate(-90 7 45)" stroke="#D4AF37" stroke-width="2"/>
<rect x="8.32237" y="26" width="25" height="25" transform="rotate(-45 8.32237 26)" stroke="#D4AF37" stroke-width="3"/>
<rect x="10" y="27" width="2" height="32" transform="rotate(-90 10 27)" fill="#D4AF37"/>
<rect x="27" y="42" width="2" height="32" transform="rotate(180 27 42)" fill="#D4AF37"/>
<rect x="64.5" y="579.5" width="49" height="49" transform="rotate(180 64.5 579.5)" fill="#040F35" stroke="#D4AF37" stroke-width="3"/>
<rect x="50.5" y="593.5" width="49" height="49" transform="rotate(180 50.5 593.5)" fill="#040F35" stroke="#D4AF37" stroke-width="3"/>
<rect x="45" y="588" width="38" height="38" transform="rotate(180 45 588)" stroke="#D4AF37" stroke-width="2"/>
<rect x="26" y="586.678" width="25" height="25" transform="rotate(-135 26 586.678)" stroke="#D4AF37" stroke-width="3"/>
<rect x="27" y="585" width="2" height="32" transform="rotate(180 27 585)" fill="#D4AF37"/>
<rect x="42" y="568" width="2" height="32" transform="rotate(90 42 568)" fill="#D4AF37"/>
<rect x="1181.5" y="530.5" width="49" height="49" transform="rotate(90 1181.5 530.5)" fill="#040F35" stroke="#D4AF37" stroke-width="3"/>
<rect x="1195.5" y="544.5" width="49" height="49" transform="rotate(90 1195.5 544.5)" fill="#040F35" stroke="#D4AF37" stroke-width="3"/>
<rect x="1190" y="550" width="38" height="38" transform="rotate(90 1190 550)" stroke="#D4AF37" stroke-width="2"/>
<rect x="1188.68" y="569" width="25" height="25" transform="rotate(135 1188.68 569)" stroke="#D4AF37" stroke-width="3"/>
<rect x="1187" y="568" width="2" height="32" transform="rotate(90 1187 568)" fill="#D4AF37"/>
<rect x="1170" y="553" width="2" height="32" fill="#D4AF37"/>
</svg>
