<svg width="324" height="810" viewBox="0 0 324 810" fill="none" xmlns="http://www.w3.org/2000/svg">
<rect x="322.5" y="1.5" width="807" height="321" transform="rotate(90 322.5 1.5)" stroke="#D4AF37" stroke-width="3"/>
<rect x="315.5" y="10.5" width="789" height="307" transform="rotate(90 315.5 10.5)" stroke="#D4AF37" stroke-width="3"/>
<rect x="308.5" y="19.5" width="771" height="293" transform="rotate(90 308.5 19.5)" stroke="#D4AF37" stroke-width="3"/>
<rect x="315.5" y="766.5" width="33" height="26" transform="rotate(90 315.5 766.5)" fill="#040F35" stroke="#D4AF37" stroke-width="3"/>
<rect x="322.5" y="775.5" width="33" height="25" transform="rotate(90 322.5 775.5)" fill="#040F35" stroke="#D4AF37" stroke-width="3"/>
<rect x="320" y="779" width="27" height="20" transform="rotate(90 320 779)" stroke="#D4AF37" stroke-width="2"/>
<rect x="-1.88111" y="-1.78814e-07" width="14.194" height="14.194" transform="matrix(-0.627038 0.778989 -0.627038 -0.778989 317.563 793.876)" stroke="#D4AF37" stroke-width="3"/>
<rect x="319" y="793" width="1" height="18" transform="rotate(90 319 793)" fill="#D4AF37"/>
<rect x="310" y="782" width="1" height="23" fill="#D4AF37"/>
<rect x="289.561" y="11.205" width="25.316" height="32.1778" fill="#040F35" stroke="#D4AF37" stroke-width="3"/>
<rect x="297.184" y="1.73401" width="25.316" height="32.1778" fill="#040F35" stroke="#D4AF37" stroke-width="3"/>
<rect x="299.951" y="5.29297" width="19.7815" height="25.0598" stroke="#D4AF37" stroke-width="2"/>
<rect y="2.33697" width="14.194" height="14.194" transform="matrix(0.627038 0.778989 -0.627038 0.778989 311.307 4.94557)" stroke="#D4AF37" stroke-width="3"/>
<rect x="309.297" y="6.9989" width="1.08908" height="21.6479" fill="#D4AF37"/>
<rect x="301.129" y="18.4994" width="1.35299" height="17.4252" transform="rotate(-90 301.129 18.4994)" fill="#D4AF37"/>
<rect x="9.12354" y="43.3827" width="32.1778" height="25.316" transform="rotate(-90 9.12354 43.3827)" fill="#040F35" stroke="#D4AF37" stroke-width="3"/>
<rect x="1.5" y="33.9117" width="32.1778" height="25.316" transform="rotate(-90 1.5 33.9117)" fill="#040F35" stroke="#D4AF37" stroke-width="3"/>
<rect x="4.26721" y="30.3528" width="25.0598" height="19.7815" transform="rotate(-90 4.26721 30.3528)" stroke="#D4AF37" stroke-width="2"/>
<rect x="1.88111" y="-2.68221e-07" width="14.194" height="14.194" transform="matrix(0.627038 -0.778989 0.627038 0.778989 4.07829 19.2882)" stroke="#D4AF37" stroke-width="3"/>
<rect x="5.44531" y="18.4994" width="1.35299" height="17.4252" transform="rotate(-90 5.44531 18.4994)" fill="#D4AF37"/>
<rect x="14.7025" y="28.647" width="1.08908" height="21.6479" transform="rotate(180 14.7025 28.647)" fill="#D4AF37"/>
<rect x="34.4395" y="799.029" width="25.316" height="32.1778" transform="rotate(-180 34.4395 799.029)" fill="#040F35" stroke="#D4AF37" stroke-width="3"/>
<rect x="26.8159" y="808.5" width="25.316" height="32.1778" transform="rotate(-180 26.8159 808.5)" fill="#040F35" stroke="#D4AF37" stroke-width="3"/>
<rect x="24.0487" y="804.941" width="19.7815" height="25.0598" transform="rotate(-180 24.0487 804.941)" stroke="#D4AF37" stroke-width="2"/>
<rect x="1.78814e-07" y="-2.33697" width="14.194" height="14.194" transform="matrix(-0.627038 -0.778989 0.627038 -0.778989 15.6233 801.647)" stroke="#D4AF37" stroke-width="3"/>
<rect x="14.7025" y="803.235" width="1.08908" height="21.6479" transform="rotate(-180 14.7025 803.235)" fill="#D4AF37"/>
<rect x="22.8706" y="791.735" width="1.35299" height="17.4252" transform="rotate(90 22.8706 791.735)" fill="#D4AF37"/>
</svg>
