<svg width="81" height="62" viewBox="0 0 81 62" fill="none" xmlns="http://www.w3.org/2000/svg">
<path opacity="0.5" d="M68.85 10.3415H12.15C8.92762 10.3415 5.83722 11.4038 3.55865 13.2947C1.28009 15.1856 0 17.7503 0 20.4244V29.5663L27.6899 37.2293H53.3102L81 29.5663V20.4244C81 17.7503 79.7199 15.1856 77.4414 13.2947C75.1628 11.4038 72.0724 10.3415 68.85 10.3415Z" fill="#1E1E1E"/>
<path d="M32.4 10.1691V6.77941H48.6V10.1691H56.7V6.77941C56.6979 4.98195 55.8438 3.25862 54.3252 1.98763C52.8066 0.716628 50.7476 0.00179477 48.6 0H32.4C30.2524 0.00179477 28.1934 0.716628 26.6748 1.98763C25.1562 3.25862 24.3021 4.98195 24.3 6.77941V10.1691H32.4ZM27.6899 37.2868L0 29.5582V50.8456C0.00321657 53.5418 1.28434 56.1268 3.56221 58.0333C5.84008 59.9398 8.92861 61.012 12.15 61.0147H68.85C72.0714 61.012 75.1599 59.9398 77.4378 58.0333C79.7157 56.1268 80.9968 53.5418 81 50.8456V29.5582L53.3102 37.2868H27.6899Z" fill="#1E1E1E"/>
</svg>
