<svg width="75" height="64" viewBox="0 0 75 64" fill="none" xmlns="http://www.w3.org/2000/svg">
<path d="M0.4425 35.4418C0.747345 37.9928 1.88987 40.3353 3.65695 42.0325C5.42403 43.7296 7.695 44.6655 10.0463 44.6655C12.3975 44.6655 14.6685 43.7296 16.4356 42.0325C18.2026 40.3353 19.3452 37.9928 19.65 35.4418H0.4425ZM52.773 56.7767C52.7736 56.9924 52.7353 57.2061 52.6604 57.4056C52.5855 57.6051 52.4753 57.7864 52.3363 57.9393C52.1973 58.0922 52.0321 58.2136 51.8501 58.2966C51.6682 58.3796 51.4731 58.4225 51.276 58.4229H23.292C22.47 58.4229 21.792 57.6844 21.792 56.7767C21.794 56.3432 21.953 55.9281 22.2342 55.6226C22.5153 55.3171 22.8957 55.1461 23.292 55.147H51.2745C52.1025 55.147 52.773 55.8757 52.773 56.7767ZM21.9555 59.2616H52.611V64H21.9555V59.2616ZM55.35 35.4418C55.6528 37.9945 56.7943 40.3393 58.5614 42.0385C60.3285 43.7377 62.6005 44.6751 64.953 44.6756C67.3052 44.6756 69.5769 43.7383 71.3434 42.0389C73.1099 40.3395 74.2504 37.9943 74.5515 35.4418H55.35ZM74.0235 32.1444L66.159 20.2911H70.3635C71.3865 20.2911 72.21 19.3737 72.21 18.2395C72.21 17.1153 71.385 16.2076 70.3635 16.2076H48.0915C47.4304 14.215 46.3012 12.448 44.8176 11.0846C43.3341 9.72121 41.5485 8.80945 39.6405 8.4411V2.04504C39.6405 0.907632 38.8065 6.01463e-06 37.773 6.01463e-06L37.599 0.0213426L37.425 6.01463e-06C37.1796 -0.000646753 36.9365 0.0518403 36.7097 0.154442C36.483 0.257045 36.277 0.407734 36.1037 0.597828C35.9304 0.787922 35.7931 1.01366 35.6999 1.26204C35.6067 1.51042 35.5593 1.77653 35.5605 2.04504V8.43782C33.6528 8.80591 31.8675 9.71762 30.3843 11.0811C28.9012 12.4446 27.7727 14.2117 27.1125 16.2043H4.836C3.8205 16.2043 2.9925 17.112 2.9925 18.2362C2.9925 19.372 3.8205 20.2878 4.836 20.2878H8.8485L0.9825 32.1412H0V34.3306H20.097V32.1412H19.11L11.247 20.2911H29.5005C29.5005 19.8283 29.547 19.3736 29.61 18.9387C29.6745 18.7336 29.718 18.5251 29.718 18.3101C30.0561 16.7508 30.7802 15.3235 31.8108 14.1848C32.8414 13.0462 34.1388 12.24 35.5605 11.855V34.3355H35.4825C35.322 42.7914 31.6455 50.1657 26.1915 54.3099H49.0125C43.557 50.1657 39.8835 42.7914 39.714 34.3355H39.642V11.855C41.0635 12.2401 42.3606 13.0463 43.391 14.185C44.4213 15.3237 45.1452 16.7509 45.483 18.3101C45.489 18.5251 45.5295 18.7336 45.5955 18.9387C45.6555 19.3753 45.693 19.8283 45.693 20.2911H63.756L55.89 32.1444H54.909V34.3339H75V32.1444H74.0235ZM9.2475 32.1444H2.97L9.2475 22.6825V32.1444ZM10.854 32.1444V22.6825L17.1315 32.1444H10.854ZM64.152 32.1444H57.8715L64.152 22.6825V32.1444ZM65.751 32.1444V22.6825L72.036 32.1444H65.751ZM11.9115 13.3551C11.8977 13.8859 11.6953 14.39 11.3473 14.7601C10.9993 15.1303 10.5331 15.3373 10.0478 15.3373C9.56241 15.3373 9.0962 15.1303 8.74818 14.7601C8.40016 14.39 8.19776 13.8859 8.184 13.3551C8.184 12.2292 9.021 11.3101 10.0515 11.3101C11.0775 11.3084 11.9115 12.2292 11.9115 13.3551ZM66.8175 13.2468C66.8175 14.3809 65.9835 15.2803 64.9545 15.2803C64.7098 15.282 64.4672 15.2307 64.2407 15.1291C64.0143 15.0276 63.8085 14.878 63.6352 14.6889C63.462 14.4998 63.3247 14.2749 63.2314 14.0274C63.138 13.7799 63.0905 13.5145 63.0915 13.2468C63.0814 12.9722 63.1222 12.6982 63.2112 12.4413C63.3003 12.1844 63.4359 11.9498 63.6099 11.7516C63.7839 11.5534 63.9927 11.3958 64.2237 11.2881C64.4548 11.1804 64.7034 11.1248 64.9545 11.1248C65.2057 11.1248 65.4542 11.1804 65.6853 11.2881C65.9163 11.3958 66.1251 11.5534 66.2991 11.7516C66.4731 11.9498 66.6087 12.1844 66.6978 12.4413C66.7868 12.6982 66.8276 12.9722 66.8175 13.2468Z" fill="black"/>
</svg>
