<svg width="46" height="42" viewBox="0 0 46 42" fill="none" xmlns="http://www.w3.org/2000/svg">
<path d="M28.1314 0.368778C28.437 0.515314 28.7289 0.689398 29.0035 0.888906L28.9863 0.876729L29.169 1.00024C29.3738 1.10801 29.5555 1.25553 29.7036 1.43434C29.8518 1.61315 29.9636 1.81973 30.0325 2.04223L30.0359 2.0544C30.3433 3.19059 30.6409 4.32946 30.9287 5.47088L31.0424 5.92142C31.2338 6.58863 31.3744 7.26961 31.463 7.95843L31.4716 8.03323C31.1752 10.7713 30.6081 13.271 29.7894 15.649L29.8618 15.4089L43.1192 15.388L43.1657 15.388C43.5673 15.3879 43.9643 15.474 44.3304 15.6404C44.6965 15.8069 45.0234 16.05 45.2894 16.3537C45.5553 16.6573 45.7543 17.0145 45.8731 17.4017C45.9919 17.7888 46.0279 18.197 45.9785 18.5993L45.9803 18.5853C46.0179 19.1947 45.8946 19.8032 45.623 20.3487C45.3513 20.8943 44.9411 21.3573 44.4343 21.6904L44.4205 21.6991C44.903 22.414 45.1286 23.274 45.0599 24.1362L45.0599 24.1241C45.1203 24.8062 44.9631 25.49 44.6111 26.0755C44.2592 26.6611 43.731 27.1177 43.1037 27.3788L43.083 27.3857C43.4673 28.0805 43.6456 28.8721 43.5966 29.6663L43.5966 29.6558C43.6349 30.2509 43.5135 30.8453 43.245 31.3765C42.9765 31.9077 42.5711 32.3559 42.0713 32.6739L42.0575 32.6826C42.4112 33.4797 42.5446 34.3585 42.4436 35.2259L42.4453 35.2033L42.4453 35.5251C42.4206 35.9535 42.3105 36.3725 42.1216 36.757C41.9327 37.1415 41.6689 37.4836 41.3459 37.7628C41.023 38.042 40.6475 38.2525 40.2421 38.3818C39.8366 38.5112 39.4094 38.5566 38.9862 38.5154L38.9982 38.5171L21.1201 38.5171C21.0322 38.5171 20.9391 38.5171 20.8443 38.5293C20.7216 38.5397 20.5986 38.5455 20.4755 38.5467L20.4479 38.5467C20.2687 38.5467 20.0963 38.5223 19.9326 38.4771L19.9464 38.4806C19.6258 38.371 19.3466 38.2248 19.0967 38.0405L19.1053 38.0474L18.9329 37.9378C18.5296 37.6873 18.1367 37.4194 17.7437 37.1533L17.5679 37.028C17.3421 36.8645 17.2335 36.7915 17.1163 36.7967C16.7027 36.8054 16.2891 36.8089 15.8754 36.8141L15.8754 20.8885L15.853 19.5508C16.6303 19.0498 17.3473 18.5766 17.5645 18.3957C17.8281 17.8526 18.1293 17.3288 18.4659 16.8284L18.4366 16.8736C18.5831 16.6405 18.7296 16.4126 18.864 16.1778L21.844 11.1505C21.9819 10.9139 22.1318 10.6791 22.2818 10.4425C22.5644 9.99022 22.8488 9.53794 23.0832 9.06827C23.2189 8.78719 23.2664 8.47101 23.2194 8.16196L23.2211 8.17066L23.2107 2.74327C23.2613 2.36524 23.392 2.00266 23.5939 1.68025C23.7959 1.35784 24.0643 1.08317 24.381 0.874987L24.3914 0.868029C24.9431 0.366846 25.6423 0.061943 26.382 -6.38334e-06L26.5423 -6.37235e-06C27.0993 0.00449939 27.6479 0.136544 28.1469 0.386174L28.1262 0.375739L28.1314 0.368778ZM14.7568 19.0811L14.7568 41.7405L2.66457 41.7405C2.37157 41.7405 2.13028 41.5143 2.1027 41.2273L2.1027 41.2256L0.00345246 19.7108L4.02181e-06 19.6552C4.03019e-06 19.58 0.0146707 19.5056 0.0431672 19.4361C0.0716636 19.3667 0.113431 19.3036 0.166085 19.2505C0.21874 19.1973 0.28125 19.1552 0.350046 19.1264C0.418843 19.0977 0.49258 19.0828 0.567045 19.0828L14.7568 19.0811ZM8.51078 22.1427C8.51078 21.8279 8.25742 21.5721 7.94546 21.5721L3.61769 21.5721C3.54322 21.5721 3.46949 21.5869 3.40069 21.6157C3.33189 21.6445 3.26938 21.6866 3.21673 21.7398C3.16407 21.7929 3.12231 21.856 3.09381 21.9254C3.06531 21.9949 3.05065 22.0693 3.05065 22.1445C3.05065 22.2196 3.06531 22.294 3.09381 22.3635C3.12231 22.4329 3.16407 22.496 3.21673 22.5491C3.26938 22.6023 3.33189 22.6444 3.40069 22.6732C3.46949 22.702 3.54322 22.7168 3.61769 22.7168L7.94374 22.7168C8.0179 22.717 8.09137 22.7025 8.15995 22.674C8.22853 22.6455 8.29086 22.6036 8.34337 22.5508C8.39589 22.4979 8.43756 22.4351 8.46599 22.366C8.49442 22.2969 8.50906 22.2228 8.50906 22.1479L8.51078 22.1427ZM11.7389 22.1427C11.7389 21.8279 11.4856 21.5721 11.1736 21.5721L9.83962 21.5721C9.76515 21.5721 9.69142 21.5869 9.62262 21.6157C9.55383 21.6445 9.49132 21.6866 9.43866 21.7398C9.38601 21.7929 9.34424 21.856 9.31574 21.9254C9.28725 21.9949 9.27258 22.0693 9.27258 22.1445C9.27258 22.2196 9.28725 22.294 9.31574 22.3635C9.34424 22.4329 9.38601 22.496 9.43866 22.5491C9.49132 22.6023 9.55383 22.6444 9.62262 22.6732C9.69142 22.702 9.76515 22.7168 9.83962 22.7168L11.1736 22.7168C11.2476 22.7168 11.3209 22.7021 11.3893 22.6735C11.4577 22.6449 11.5198 22.603 11.5721 22.5502C11.6245 22.4973 11.666 22.4346 11.6943 22.3656C11.7226 22.2966 11.7372 22.2226 11.7372 22.1479L11.7389 22.1427ZM12.9351 36.0591C12.9522 35.7521 12.9071 35.4447 12.8025 35.1559C12.698 34.867 12.5361 34.6027 12.3269 34.3792C12.1176 34.1556 11.8654 33.9774 11.5857 33.8556C11.3059 33.7338 11.0045 33.6708 10.6998 33.6706C10.3951 33.6703 10.0935 33.7328 9.81356 33.8542C9.5336 33.9756 9.28112 34.1534 9.07156 34.3766C8.86199 34.5999 8.69974 34.8639 8.59472 35.1526C8.48971 35.4413 8.44414 35.7486 8.4608 36.0556C8.49548 36.6301 8.74585 37.1695 9.16089 37.5642C9.57594 37.9588 10.1244 38.1788 10.6946 38.1795C11.2648 38.1802 11.8138 37.9614 12.2298 37.5677C12.6457 37.1741 12.8974 36.6352 12.9333 36.0608L12.9351 36.0591ZM11.8027 36.0591C11.8026 36.2053 11.774 36.3501 11.7184 36.4851C11.6629 36.6201 11.5815 36.7428 11.479 36.8461C11.3765 36.9494 11.2549 37.0313 11.121 37.0871C10.9871 37.143 10.8437 37.1717 10.6988 37.1716C10.5539 37.1714 10.4105 37.1425 10.2767 37.0865C10.143 37.0304 10.0214 36.9483 9.91907 36.8449C9.81672 36.7414 9.73556 36.6186 9.68024 36.4835C9.62491 36.3484 9.59649 36.2036 9.5966 36.0574C9.60809 35.77 9.72935 35.4982 9.93497 35.299C10.1406 35.0998 10.4146 34.9887 10.6996 34.9889C10.9846 34.9891 11.2585 35.1007 11.4638 35.3002C11.6691 35.4997 11.7917 35.7717 11.8027 36.0591Z" fill="black"/>
</svg>
