<svg width="28" height="25" viewBox="0 0 28 25" fill="none" xmlns="http://www.w3.org/2000/svg">
<path d="M0.1652 13.6319C0.279009 14.6131 0.70555 15.5141 1.36526 16.1669C2.02497 16.8196 2.8728 17.1796 3.7506 17.1796C4.6284 17.1796 5.47623 16.8196 6.13594 16.1669C6.79565 15.5141 7.22219 14.6131 7.336 13.6319H0.1652ZM19.7019 21.8379C19.7021 21.9209 19.6879 22.0031 19.6599 22.0798C19.6319 22.1565 19.5908 22.2263 19.5389 22.2851C19.487 22.3439 19.4253 22.3906 19.3574 22.4225C19.2895 22.4544 19.2166 22.4709 19.143 22.4711H8.69568C8.3888 22.4711 8.13568 22.187 8.13568 21.8379C8.13642 21.6712 8.19578 21.5115 8.30076 21.394C8.40573 21.2765 8.54775 21.2107 8.69568 21.2111H19.1425C19.4516 21.2111 19.7019 21.4913 19.7019 21.8379ZM8.19672 22.7937H19.6414V24.6162H8.19672V22.7937ZM20.664 13.6319C20.777 14.6137 21.2032 15.5156 21.8629 16.1692C22.5227 16.8227 23.3708 17.1833 24.2491 17.1835C25.1273 17.1835 25.9754 16.823 26.6349 16.1693C27.2944 15.5157 27.7201 14.6137 27.8326 13.6319H20.664ZM27.6354 12.3636L24.6994 7.80453H26.269C26.651 7.80453 26.9584 7.45165 26.9584 7.01543C26.9584 6.583 26.6504 6.2339 26.269 6.2339H17.9542C17.7073 5.46747 17.2858 4.78786 16.7319 4.26345C16.1781 3.73905 15.5114 3.38836 14.7991 3.24668V0.786579C14.7991 0.349101 14.4878 2.3134e-06 14.1019 2.3134e-06L14.037 0.00820898L13.972 2.3134e-06C13.8804 -0.000248759 13.7896 0.0199392 13.705 0.0594029C13.6203 0.0988665 13.5434 0.156826 13.4787 0.229941C13.414 0.303057 13.3628 0.389882 13.328 0.485416C13.2932 0.58095 13.2755 0.683304 13.2759 0.786579V3.24542C12.5637 3.387 11.8972 3.73767 11.3435 4.2621C10.7898 4.78653 10.3685 5.4662 10.122 6.23264H1.80544C1.42632 6.23264 1.1172 6.58174 1.1172 7.01417C1.1172 7.45101 1.42632 7.80327 1.80544 7.80327H3.30344L0.3668 12.3624H0V13.2045H7.50288V12.3624H7.1344L4.19888 7.80453H11.0135C11.0135 7.62651 11.0309 7.45165 11.0544 7.28436C11.0785 7.20545 11.0947 7.12527 11.0947 7.04258C11.221 6.44283 11.4913 5.89386 11.876 5.45588C12.2608 5.01791 12.7451 4.70786 13.2759 4.55975V13.2064H13.2468C13.1869 16.4588 11.8143 19.2951 9.77816 20.8891H18.298C16.2613 19.2951 14.8898 16.4588 14.8266 13.2064H14.7997V4.55975C15.3304 4.7079 15.8146 5.01797 16.1993 5.45595C16.584 5.89392 16.8542 6.44287 16.9803 7.04258C16.9826 7.12527 16.9977 7.20545 17.0223 7.28436C17.0447 7.45228 17.0587 7.62651 17.0587 7.80453H23.8022L20.8656 12.3636H20.4994V13.2058H28V12.3636H27.6354ZM3.4524 12.3636H1.1088L3.4524 8.72431V12.3636ZM4.05216 12.3636V8.72431L6.39576 12.3636H4.05216ZM23.9501 12.3636H21.6054L23.9501 8.72431V12.3636ZM24.547 12.3636V8.72431L26.8934 12.3636H24.547ZM4.44696 5.13674C4.44182 5.34091 4.36626 5.53478 4.23633 5.67715C4.10641 5.81952 3.93235 5.89917 3.75116 5.89917C3.56997 5.89917 3.39591 5.81952 3.26599 5.67715C3.13606 5.53478 3.0605 5.34091 3.05536 5.13674C3.05536 4.70368 3.36784 4.35016 3.75256 4.35016C4.1356 4.34953 4.44696 4.70368 4.44696 5.13674ZM24.9452 5.09507C24.9452 5.53129 24.6338 5.87723 24.2497 5.87723C24.1583 5.8779 24.0677 5.85814 23.9832 5.81909C23.8987 5.78004 23.8218 5.72249 23.7571 5.64975C23.6925 5.57701 23.6412 5.49053 23.6064 5.39533C23.5715 5.30012 23.5538 5.19806 23.5542 5.09507C23.5504 4.98946 23.5656 4.88408 23.5989 4.78526C23.6321 4.68644 23.6827 4.59621 23.7477 4.51999C23.8127 4.44377 23.8906 4.38313 23.9769 4.3417C24.0631 4.30027 24.1559 4.27892 24.2497 4.27892C24.3434 4.27892 24.4362 4.30027 24.5225 4.3417C24.6088 4.38313 24.6867 4.44377 24.7517 4.51999C24.8166 4.59621 24.8672 4.68644 24.9005 4.78526C24.9338 4.88408 24.949 4.98946 24.9452 5.09507Z" fill="#D4AF37"/>
</svg>
