<svg width="29" height="29" viewBox="0 0 29 29" fill="none" xmlns="http://www.w3.org/2000/svg">
<path d="M24.4688 8.45953H4.53125C4.03074 8.45953 3.625 8.86528 3.625 9.36578C3.625 9.86629 4.03074 10.272 4.53125 10.272H24.4688C24.9693 10.272 25.375 9.86629 25.375 9.36578C25.375 8.86528 24.9693 8.45953 24.4688 8.45953Z" fill="#D4AF37"/>
<path d="M20.8438 13.595H4.53125C4.03074 13.595 3.625 14.0007 3.625 14.5012C3.625 15.0017 4.03074 15.4075 4.53125 15.4075H20.8438C21.3443 15.4075 21.75 15.0017 21.75 14.5012C21.75 14.0007 21.3443 13.595 20.8438 13.595Z" fill="#D4AF37"/>
<path d="M24.4688 18.728H4.53125C4.03074 18.728 3.625 19.1337 3.625 19.6342C3.625 20.1347 4.03074 20.5405 4.53125 20.5405H24.4688C24.9693 20.5405 25.375 20.1347 25.375 19.6342C25.375 19.1337 24.9693 18.728 24.4688 18.728Z" fill="#D4AF37"/>
</svg>
