<svg width="62" height="63" viewBox="0 0 62 63" fill="none" xmlns="http://www.w3.org/2000/svg">
<path d="M31 0C39.5638 0 46.5 6.17041 46.5 13.7886C46.5 21.4069 39.5638 27.5773 31 27.5773C22.4363 27.5773 15.5 21.4069 15.5 13.7886C15.5 6.17041 22.4363 0 31 0ZM46.5 36.333C46.5 39.987 45.415 48.5015 38.0138 58.0157L34.875 41.3659L38.5175 34.8852C36.115 34.6439 33.5962 34.4716 31 34.4716C28.4037 34.4716 25.885 34.6439 23.4825 34.8852L27.125 41.3659L23.9862 58.0157C16.585 48.5015 15.5 39.987 15.5 36.333C6.23875 38.7461 0 43.0895 0 48.2602V62.0489H62V48.2602C62 43.0895 55.8 38.7461 46.5 36.333Z" fill="black"/>
</svg>
