<svg width="17" height="17" viewBox="0 0 17 17" fill="none" xmlns="http://www.w3.org/2000/svg">
<path d="M16.6667 8.33333C16.6662 6.12333 15.7881 4.00397 14.2254 2.44126C12.6627 0.878557 10.5433 0.000441868 8.33333 0V1.66667C9.65174 1.66697 10.9405 2.05803 12.0367 2.79045C13.133 3.52287 13.9876 4.56378 14.4925 5.78167C14.8276 6.59064 15 7.4577 15 8.33333H16.6667ZM0 6.66667V2.5C0 2.27899 0.0877973 2.06702 0.244078 1.91074C0.400358 1.75446 0.61232 1.66667 0.833333 1.66667H5C5.22101 1.66667 5.43297 1.75446 5.58926 1.91074C5.74554 2.06702 5.83333 2.27899 5.83333 2.5V5.83333C5.83333 6.05435 5.74554 6.26631 5.58926 6.42259C5.43297 6.57887 5.22101 6.66667 5 6.66667H3.33333C3.33333 8.43478 4.03571 10.1305 5.28595 11.3807C6.5362 12.631 8.23189 13.3333 10 13.3333V11.6667C10 11.4457 10.0878 11.2337 10.2441 11.0774C10.4004 10.9211 10.6123 10.8333 10.8333 10.8333H14.1667C14.3877 10.8333 14.5996 10.9211 14.7559 11.0774C14.9122 11.2337 15 11.4457 15 11.6667V15.8333C15 16.0543 14.9122 16.2663 14.7559 16.4226C14.5996 16.5789 14.3877 16.6667 14.1667 16.6667H10C4.4775 16.6667 0 12.1892 0 6.66667Z" fill="#D4AF37"/>
<path d="M12.6192 6.08667C12.8707 6.69319 13.0001 7.34338 13 8H11.5C11.5001 7.54034 11.4097 7.08517 11.2338 6.66048C11.0579 6.23579 10.8001 5.84991 10.4751 5.52488C10.1501 5.19986 9.76421 4.94205 9.33952 4.7662C8.91483 4.59035 8.45966 4.49989 8 4.5V3C8.98888 3.00005 9.95553 3.29333 10.7777 3.84275C11.5999 4.39217 12.2408 5.17306 12.6192 6.08667Z" fill="#D4AF37"/>
</svg>
