<svg width="272" height="271" viewBox="0 0 272 271" fill="none" xmlns="http://www.w3.org/2000/svg">
<path fill-rule="evenodd" clip-rule="evenodd" d="M68 67.75C61.9884 67.75 56.223 70.1293 51.9722 74.3645C47.7214 78.5997 45.3333 84.3439 45.3333 90.3333V124.208C45.3333 130.198 47.7214 135.942 51.9722 140.177C56.223 144.412 61.9884 146.792 68 146.792H102C102 155.776 98.4179 164.392 92.0416 170.745C85.6654 177.098 77.0173 180.667 68 180.667H56.6666C53.6609 180.667 50.7782 181.856 48.6528 183.974C46.5274 186.092 45.3333 188.964 45.3333 191.958C45.3333 194.953 46.5274 197.825 48.6528 199.943C50.7782 202.06 53.6609 203.25 56.6666 203.25H68C83.0289 203.25 97.4423 197.302 108.069 186.714C118.696 176.126 124.667 161.765 124.667 146.792V90.3333C124.667 84.3439 122.279 78.5997 118.028 74.3645C113.777 70.1293 108.012 67.75 102 67.75H68ZM170 67.75C163.988 67.75 158.223 70.1293 153.972 74.3645C149.721 78.5997 147.333 84.3439 147.333 90.3333V124.208C147.333 130.198 149.721 135.942 153.972 140.177C158.223 144.412 163.988 146.792 170 146.792H204C204 155.776 200.418 164.392 194.042 170.745C187.665 177.098 179.017 180.667 170 180.667H158.667C155.661 180.667 152.778 181.856 150.653 183.974C148.527 186.092 147.333 188.964 147.333 191.958C147.333 194.953 148.527 197.825 150.653 199.943C152.778 202.06 155.661 203.25 158.667 203.25H170C185.029 203.25 199.442 197.302 210.069 186.714C220.696 176.126 226.667 161.765 226.667 146.792V90.3333C226.667 84.3439 224.279 78.5997 220.028 74.3645C215.777 70.1293 210.012 67.75 204 67.75H170Z" fill="#DCDCDC"/>
</svg>
